<svg xmlns="http://www.w3.org/2000/svg" width="2133" height="1087" style="cursor: move;"><g transform="translate(1,-15) scale(1)"><path class="link" marker-end="" d="M906.5,510.5, 1086.5,473.5" style="stroke-width: 0.22; stroke-opacity: 1; stroke: rgb(80, 80, 80);"></path><path class="link" marker-end="" d="M906.5,510.5, 1086.5,513.5" style="stroke-width: 0.22; stroke-opacity: 1; stroke: rgb(80, 80, 80);"></path><path class="link" marker-end="" d="M906.5,510.5, 1086.5,553.5" style="stroke-width: 0.22; stroke-opacity: 1; stroke: rgb(80, 80, 80);"></path><path class="link" marker-end="" d="M906.5,510.5, 1086.5,593.5" style="stroke-width: 0.22; stroke-opacity: 1; stroke: rgb(80, 80, 80);"></path><path class="link" marker-end="" d="M906.5,556.5, 1086.5,473.5" style="stroke-width: 0.22; stroke-opacity: 1; stroke: rgb(80, 80, 80);"></path><path class="link" marker-end="" d="M906.5,556.5, 1086.5,513.5" style="stroke-width: 0.22; stroke-opacity: 1; stroke: rgb(80, 80, 80);"></path><path class="link" marker-end="" d="M906.5,556.5, 1086.5,553.5" style="stroke-width: 0.22; stroke-opacity: 1; stroke: rgb(80, 80, 80);"></path><path class="link" marker-end="" d="M906.5,556.5, 1086.5,593.5" style="stroke-width: 0.22; stroke-opacity: 1; stroke: rgb(80, 80, 80);"></path><path class="link" marker-end="" d="M1086.5,473.5, 1266.5,533.5" style="stroke-width: 0.22; stroke-opacity: 1; stroke: rgb(80, 80, 80);"></path><path class="link" marker-end="" d="M1086.5,513.5, 1266.5,533.5" style="stroke-width: 0.22; stroke-opacity: 1; stroke: rgb(80, 80, 80);"></path><path class="link" marker-end="" d="M1086.5,553.5, 1266.5,533.5" style="stroke-width: 0.22; stroke-opacity: 1; stroke: rgb(80, 80, 80);"></path><path class="link" marker-end="" d="M1086.5,593.5, 1266.5,533.5" style="stroke-width: 0.22; stroke-opacity: 1; stroke: rgb(80, 80, 80);"></path><circle r="10" class="node" id="0_0" cx="906.5" cy="510.5" style="fill: rgb(255, 255, 255); stroke: rgb(51, 51, 51);"></circle><circle r="10" class="node" id="0_1" cx="906.5" cy="556.5" style="fill: rgb(255, 255, 255); stroke: rgb(51, 51, 51);"></circle><text class="text" dy=".35em" x="871.5" y="633.5" style="font-size: 12px;">Input Layer ∈ ℝ²</text><circle r="10" class="node" id="1_0" cx="1086.5" cy="473.5" style="fill: rgb(255, 255, 255); stroke: rgb(51, 51, 51);"></circle><circle r="10" class="node" id="1_1" cx="1086.5" cy="513.5" style="fill: rgb(255, 255, 255); stroke: rgb(51, 51, 51);"></circle><circle r="10" class="node" id="1_2" cx="1086.5" cy="553.5" style="fill: rgb(255, 255, 255); stroke: rgb(51, 51, 51);"></circle><circle r="10" class="node" id="1_3" cx="1086.5" cy="593.5" style="fill: rgb(255, 255, 255); stroke: rgb(51, 51, 51);"></circle><text class="text" dy=".35em" x="1051.5" y="633.5" style="font-size: 12px;">Hidden Layer ∈ ℝ⁴</text><circle r="10" class="node" id="2_0" cx="1266.5" cy="533.5" style="fill: rgb(255, 255, 255); stroke: rgb(51, 51, 51);"></circle><text class="text" dy=".35em" x="1231.5" y="633.5" style="font-size: 12px;">Output Layer ∈ ℝ¹</text></g><defs><marker id="arrow" viewBox="0 -5 10 10" markerWidth="7" markerHeight="7" orient="auto" refX="40"><path d="M0,-5L10,0L0,5" style="stroke: rgb(80, 80, 80); fill: none;"></path></marker></defs></svg>